<?xml version="1.0" encoding="utf-8"?>
<!-- Generator: Adobe Illustrator 16.0.0, SVG Export Plug-In . SVG Version: 6.00 Build 0)  -->
<!DOCTYPE svg PUBLIC "-//W3C//DTD SVG 1.1//EN" "http://www.w3.org/Graphics/SVG/1.1/DTD/svg11.dtd">
<svg version="1.1" id="Layer_1" xmlns="http://www.w3.org/2000/svg" xmlns:xlink="http://www.w3.org/1999/xlink" x="0px" y="0px"
	 width="313.001px" height="370.001px" viewBox="0 0 313.001 370.001" enable-background="new 0 0 313.001 370.001"
	 xml:space="preserve">
<g>
	<path display="none" fill="#FFFFFF" d="M23.588,268.976c-17.157,0.01-31.095-13.946-31.097-31.101l-0.008-95.218
		c-0.006-17.137,13.93-31.089,31.063-31.092c8.332-0.008,16.13,3.225,22.012,9.095c5.88,5.875,9.114,13.686,9.12,21.989
		l-0.008,95.225c0.021,8.291-3.203,16.104-9.078,21.969C39.726,265.733,31.905,268.973,23.588,268.976"/>
	<path display="none" fill="#FFFFFF" d="M23.563,119.921c-12.556-0.006-22.732,10.19-22.735,22.735l0.017,95.213
		c0.003,12.588,10.198,22.747,22.738,22.759c12.567-0.015,22.745-10.178,22.732-22.758l0.001-95.227
		C46.312,130.103,36.121,119.913,23.563,119.921"/>
	<path display="none" fill="#FFFFFF" d="M267.465,124.636l-8.359-0.003L54.293,124.66l-8.362,0.002l-0.003-8.361
		c-0.02-34.32,18.68-66.241,49.304-85.102L83.326,9.466c-1.458-2.548-1.822-5.772-0.975-8.723c0.861-2.949,2.895-5.482,5.621-6.933
		c1.576-0.894,3.501-1.391,5.449-1.388c4.217,0,8.083,2.289,10.117,5.989L116,21.113c12.897-4.732,26.512-7.144,40.576-7.139
		c14.268-0.007,27.951,2.409,40.902,7.158L209.92-1.607c2.003-3.691,5.895-5.99,10.105-5.987c1.896-0.002,3.786,0.461,5.455,1.36
		c2.8,1.535,4.751,3.984,5.61,6.954c0.855,2.952,0.512,6.069-0.988,8.774l-11.899,21.723c30.578,18.898,49.254,50.796,49.251,85.057
		L267.465,124.636z"/>
	<path display="none" fill="#FFFFFF" d="M206.918,34.42l15.869-28.981c0.847-1.514,0.293-3.454-1.237-4.293
		c-1.553-0.835-3.468-0.265-4.285,1.257l-16.035,29.271c-13.486-5.985-28.585-9.356-44.547-9.34
		c-15.929-0.014-31.001,3.34-44.448,9.308L96.188,2.437c-0.828-1.541-2.762-2.104-4.271-1.255c-1.543,0.823-2.107,2.759-1.252,4.27
		l15.877,28.956c-31.196,16.092-52.271,46.727-52.255,81.898l204.811-0.021C259.104,81.118,238.066,50.547,206.918,34.42
		 M110.1,79.202c-4.716-0.01-8.559-3.844-8.56-8.581c0.002-4.718,3.842-8.596,8.567-8.596c4.749-0.004,8.59,3.878,8.596,8.594
		C118.706,75.352,114.856,79.199,110.1,79.202 M203.357,79.185c-4.734,0.005-8.597-3.828-8.588-8.585
		c0-4.707,3.848-8.588,8.592-8.604c4.709,0.014,8.572,3.896,8.568,8.609C211.933,75.345,208.091,79.186,203.357,79.185"/>
	<path display="none" fill="#FFFFFF" d="M118.682,377.5c-17.14-0.002-31.089-13.944-31.093-31.095l-0.008-42.023l-8.167,0.007
		c-8.728,0.002-16.917-3.389-23.074-9.549c-6.165-6.154-9.56-14.35-9.548-23.084l-0.03-147.53l-0.002-8.366l8.361,0.001
		l203.275-0.032l8.363-0.006l0.001,8.361l0.021,147.549c0.003,17.992-14.635,32.635-32.625,32.631l-8.223,0.01l0.012,42.008
		c-0.002,17.141-13.946,31.097-31.079,31.096c-8.305,0.02-16.103-3.21-21.987-9.097c-5.891-5.871-9.133-13.678-9.129-21.979
		l-0.001-42.029l-13.973-0.001v42.021C149.774,363.54,135.829,377.503,118.682,377.5"/>
	<path display="none" fill="#FFFFFF" d="M55.161,271.756c-0.012,13.436,10.833,24.282,24.257,24.277l16.52,0.001l0.019,50.379
		c-0.003,12.541,10.187,22.737,22.72,22.739c12.564,0,22.742-10.206,22.731-22.757l0.002-50.367l30.696-0.006l-0.002,50.377
		c0.011,12.543,10.214,22.749,22.743,22.729c12.562,0.008,22.747-10.198,22.745-22.749l-0.014-50.363l16.58-0.005
		c13.378,0.005,24.261-10.867,24.26-24.273l-0.025-147.56l-203.269,0.037L55.161,271.756z"/>
	<path display="none" fill="#FFFFFF" d="M289.932,268.938c-17.148,0.002-31.098-13.933-31.093-31.087l-0.023-95.217
		c0.004-17.151,13.932-31.102,31.072-31.103c17.162-0.002,31.118,13.945,31.115,31.093l0.009,95.212
		C321.016,254.976,307.079,268.94,289.932,268.938"/>
	<path display="none" fill="#FFFFFF" d="M289.905,119.891c-12.555-0.01-22.731,10.186-22.729,22.743l0.009,95.213
		c0.006,12.572,10.177,22.743,22.743,22.735c12.555-0.002,22.719-10.165,22.729-22.743l-0.025-95.211
		C312.631,130.067,302.462,119.888,289.905,119.891"/>
	<path fill="#A4C439" d="M23.563,119.921c-12.556-0.006-22.732,10.19-22.735,22.735l0.017,95.213
		c0.003,12.588,10.184,22.745,22.74,22.743c12.564,0.001,22.742-10.162,22.729-22.742l0.001-95.227
		C46.312,130.103,36.121,119.913,23.563,119.921 M206.918,34.42l15.869-28.981c0.847-1.514,0.291-3.443-1.244-4.298
		c-1.548-0.819-3.46-0.263-4.278,1.262l-16.029,29.283c-13.491-6.001-28.582-9.37-44.553-9.352
		c-15.929-0.014-31.016,3.341-44.448,9.308L96.188,2.437c-0.835-1.542-2.754-2.099-4.27-1.259c-1.544,0.831-2.108,2.763-1.253,4.274
		l15.877,28.959c-31.195,16.089-52.271,46.724-52.254,81.896l204.811-0.021C259.104,81.118,238.066,50.547,206.918,34.42
		 M110.1,79.202c-4.716-0.01-8.559-3.844-8.56-8.581c0.002-4.718,3.835-8.597,8.567-8.596c4.749-0.004,8.59,3.878,8.596,8.594
		C118.706,75.352,114.856,79.199,110.1,79.202 M203.357,79.185c-4.734,0.005-8.589-3.834-8.588-8.585
		c0.016-4.704,3.848-8.588,8.592-8.604c4.709,0.014,8.572,3.896,8.568,8.609C211.94,75.346,208.091,79.186,203.357,79.185
		 M55.125,124.214l0.035,147.555c-0.01,13.422,10.845,24.255,24.26,24.258l16.519,0.007l0.019,50.379
		c-0.003,12.541,10.193,22.739,22.72,22.739c12.564,0,22.742-10.206,22.746-22.755l-0.013-50.369l30.696-0.006l0.013,50.377
		c-0.003,12.535,10.199,22.749,22.729,22.729c12.562,0.008,22.747-10.198,22.745-22.749l-0.014-50.363l16.576-0.013
		c13.383,0.005,24.269-10.844,24.271-24.266l-0.025-147.558L55.125,124.214z M312.642,142.622
		c-0.002-12.557-10.18-22.734-22.736-22.731c-12.555-0.01-22.731,10.186-22.729,22.743l0.016,95.215
		c-0.001,12.57,10.172,22.729,22.736,22.733c12.555-0.002,22.727-10.163,22.729-22.743L312.642,142.622z"/>
</g>
</svg>
