<?xml version="1.0" encoding="utf-8"?>
<!-- Generator: Adobe Illustrator 16.0.0, SVG Export Plug-In . SVG Version: 6.00 Build 0)  -->
<!DOCTYPE svg PUBLIC "-//W3C//DTD SVG 1.1//EN" "http://www.w3.org/Graphics/SVG/1.1/DTD/svg11.dtd">
<svg version="1.1" id="Layer_1" xmlns="http://www.w3.org/2000/svg" xmlns:xlink="http://www.w3.org/1999/xlink" x="0px" y="0px"
	 width="157px" height="184px" viewBox="0 0 157 184" enable-background="new 0 0 157 184" xml:space="preserve">
<rect x="-187" y="-108" fill-rule="evenodd" clip-rule="evenodd" fill="none" width="530" height="400"/>
<path fill-rule="evenodd" clip-rule="evenodd" fill="#231F20" d="M151.845,61.794c-9.354-11.658-22.48-18.403-34.865-18.403
	c-16.391,0-23.315,7.783-34.687,7.783c-11.719,0-20.629-7.771-34.806-7.771c-13.923,0-28.728,8.456-38.114,22.907
	c-13.207,20.331-10.969,58.578,10.445,91.171c7.66,11.651,17.889,24.758,31.263,24.878c11.886,0.109,15.253-7.585,31.381-7.674
	c16.129-0.089,19.179,7.758,31.067,7.648c13.371-0.129,24.163-14.637,31.819-26.295c5.489-8.346,7.529-12.562,11.793-22.009
	C126.179,122.333,121.199,78.584,151.845,61.794z M104.547,30.368c5.953-7.641,10.476-18.429,8.833-29.458
	c-9.727,0.672-21.103,6.86-27.745,14.924c-6.027,7.322-11.006,18.179-9.068,28.736C87.183,44.896,98.171,38.555,104.547,30.368z"/>
</svg>
