<?xml version="1.0" encoding="utf-8"?>
<!-- Generator: Adobe Illustrator 16.0.0, SVG Export Plug-In . SVG Version: 6.00 Build 0)  -->
<!DOCTYPE svg PUBLIC "-//W3C//DTD SVG 1.1//EN" "http://www.w3.org/Graphics/SVG/1.1/DTD/svg11.dtd">
<svg version="1.1" id="Layer_1" xmlns="http://www.w3.org/2000/svg" xmlns:xlink="http://www.w3.org/1999/xlink" x="0px" y="0px"
	 width="313px" height="370px" viewBox="0 0 313 370" enable-background="new 0 0 313 370" xml:space="preserve">
<g>
	<path fill="#020202" d="M118.465,176.125c0-17.498,38.495-22.571,38.495-63.688c0-24.671-2.275-39.544-21.696-48.292
		c0-6.125,34.294-2.101,34.294-13.533c-5.949,0-75.121,0-75.121,0s-76.055,1.864-76.055,66.254
		c0,64.387,66.489,56.923,66.489,56.923s0,9.745,0,16.333s8.923,4.375,10.03,17.727c-4.492,0-92.384-2.329-92.384,55.99
		c0,58.318,77.454,55.524,77.454,55.524s89.586,4.084,89.586-68.352C169.557,207.62,118.465,193.623,118.465,176.125z M53.567,120.6
		c-7.032-25.858,2.236-50.891,20.704-55.91c18.468-5.025,39.136,11.865,46.168,37.723c7.037,25.864-2.231,50.898-20.699,55.924
		C81.27,163.357,60.601,146.461,53.567,120.6z M92.034,300.74c-31.006,2.103-57.38-14.527-58.908-37.141
		c-1.536-22.615,22.355-42.649,53.36-44.749c31.014-2.1,57.395,14.523,58.93,37.136C146.946,278.609,123.045,298.64,92.034,300.74z"
		/>
	<polygon fill="#020202" points="310.484,102.888 310.484,118.286 258.19,118.286 258.19,170.526 242.792,170.526 242.792,118.286 
		190.551,118.286 190.551,102.888 242.792,102.888 242.792,50.594 258.19,50.594 258.19,102.888 	"/>
</g>
</svg>
