<?xml version="1.0" encoding="utf-8"?>
<!-- Generator: Adobe Illustrator 16.0.0, SVG Export Plug-In . SVG Version: 6.00 Build 0)  -->
<!DOCTYPE svg PUBLIC "-//W3C//DTD SVG 1.1//EN" "http://www.w3.org/Graphics/SVG/1.1/DTD/svg11.dtd">
<svg version="1.1" id="Layer_1" xmlns="http://www.w3.org/2000/svg" xmlns:xlink="http://www.w3.org/1999/xlink" x="0px" y="0px"
	 width="313px" height="370px" viewBox="0 0 313 370" enable-background="new 0 0 313 370" xml:space="preserve">
<g>
	<path fill-rule="evenodd" clip-rule="evenodd" fill="#020202" d="M71.647,333.559V133.084H5.019v200.475H71.647L71.647,333.559z
		 M38.335,105.721c23.232,0,37.696-15.405,37.696-34.643c-0.434-19.664-14.464-34.638-37.256-34.638
		C15.98,36.441,1.08,51.415,1.08,71.079c0,19.237,14.46,34.643,36.822,34.643H38.335L38.335,105.721z"/>
	<path fill-rule="evenodd" clip-rule="evenodd" fill="#020202" d="M108.522,333.559h66.633V221.604
		c0-5.989,0.434-11.983,2.195-16.256c4.812-11.975,15.781-24.375,34.184-24.375c24.117,0,33.76,18.39,33.76,45.333v107.253h66.627
		V218.61c0-61.576-32.869-90.228-76.711-90.228c-35.951,0-51.729,20.096-60.498,33.777h0.443v-29.075h-66.633
		C109.396,151.893,108.522,333.559,108.522,333.559L108.522,333.559z"/>
</g>
</svg>
