<?xml version="1.0" encoding="utf-8"?>
<!-- Generator: Adobe Illustrator 16.0.0, SVG Export Plug-In . SVG Version: 6.00 Build 0)  -->
<!DOCTYPE svg PUBLIC "-//W3C//DTD SVG 1.1//EN" "http://www.w3.org/Graphics/SVG/1.1/DTD/svg11.dtd">
<svg version="1.1" id="Layer_1" xmlns="http://www.w3.org/2000/svg" xmlns:xlink="http://www.w3.org/1999/xlink" x="0px" y="0px"
	 width="313px" height="370px" viewBox="0 0 313 370" enable-background="new 0 0 313 370" xml:space="preserve">
<g>
	<path d="M156.497,48.895c-54.583,0-98.994,44.958-98.994,100.219c0,14.414,2.914,28.177,8.658,40.91
		c24.751,54.824,72.205,112.713,86.162,129.145c1.048,1.23,2.571,1.938,4.176,1.938c1.602,0,3.128-0.707,4.177-1.938
		c13.947-16.428,61.402-74.314,86.164-129.145c5.746-12.733,8.659-26.496,8.659-40.91C255.494,93.854,211.081,48.895,156.497,48.895
		z M156.497,201.167c-28.354,0-51.424-23.353-51.424-52.055c0-28.708,23.069-52.06,51.424-52.06s51.423,23.352,51.423,52.06
		C207.919,177.813,184.851,201.167,156.497,201.167z"/>
</g>
</svg>
