<?xml version="1.0" encoding="iso-8859-1"?>
<!-- Generator: Adobe Illustrator 16.0.0, SVG Export Plug-In . SVG Version: 6.00 Build 0)  -->
<!DOCTYPE svg PUBLIC "-//W3C//DTD SVG 1.1//EN" "http://www.w3.org/Graphics/SVG/1.1/DTD/svg11.dtd">
<svg version="1.1" id="Capa_1" xmlns="http://www.w3.org/2000/svg" xmlns:xlink="http://www.w3.org/1999/xlink" x="0px" y="0px"
	 width="90.333px" height="90.333px" viewBox="0 0 90.333 90.333" style="enable-background:new 0 0 90.333 90.333;"
	 xml:space="preserve">
<g>
	<g>
		<path d="M67.334,0H23c-2.206,0-4,1.794-4,4v82.333c0,2.206,1.794,4,4,4h44.333c2.206,0,4-1.794,4-4V4
			C71.334,1.795,69.539,0,67.334,0z M69.334,86.334c0,1.104-0.896,2-2,2H23c-1.103,0-2-0.896-2-2V4c0-1.103,0.897-2,2-2h44.333
			c1.103,0,2,0.897,2,2L69.334,86.334L69.334,86.334z"/>
		<rect x="23.424" y="5.292" width="43.485" height="67.416"/>
		<circle cx="45.167" cy="79.834" r="4.625"/>
	</g>
</g>
<g>
</g>
<g>
</g>
<g>
</g>
<g>
</g>
<g>
</g>
<g>
</g>
<g>
</g>
<g>
</g>
<g>
</g>
<g>
</g>
<g>
</g>
<g>
</g>
<g>
</g>
<g>
</g>
<g>
</g>
</svg>
