<?xml version="1.0" encoding="utf-8"?>
<!-- Generator: Adobe Illustrator 16.0.0, SVG Export Plug-In . SVG Version: 6.00 Build 0)  -->
<!DOCTYPE svg PUBLIC "-//W3C//DTD SVG 1.1//EN" "http://www.w3.org/Graphics/SVG/1.1/DTD/svg11.dtd">
<svg version="1.1" id="Layer_1" xmlns="http://www.w3.org/2000/svg" xmlns:xlink="http://www.w3.org/1999/xlink" x="0px" y="0px"
	 width="32px" height="32px" viewBox="0 0 32 32" enable-background="new 0 0 32 32" xml:space="preserve">
<g>
	<path d="M22.606,28.877l-4.218-3.414c3.647-2.395,6.839-6.951,7.294-10.597c-0.112,0-0.909,0.223-1.479,0.223
		c-3.192,0-5.586-2.507-5.586-5.805c0-3.416,2.736-6.161,6.156-6.161c3.758,0,7.066,3.08,7.066,8.662
		C31.84,18.744,27.85,25.239,22.606,28.877z M4.373,28.877L0.16,25.463c3.646-2.395,6.838-6.951,7.293-10.597
		c-0.23,0-1.029,0.223-1.484,0.223c-3.191,0-5.586-2.507-5.586-5.805c0-3.416,2.738-6.161,6.15-6.161c3.77,0,7.072,3.08,7.072,8.662
		C13.605,18.744,9.617,25.239,4.373,28.877z"/>
</g>
</svg>
