<?xml version="1.0" encoding="utf-8"?>
<!-- Generator: Adobe Illustrator 16.0.0, SVG Export Plug-In . SVG Version: 6.00 Build 0)  -->
<!DOCTYPE svg PUBLIC "-//W3C//DTD SVG 1.1//EN" "http://www.w3.org/Graphics/SVG/1.1/DTD/svg11.dtd">
<svg version="1.1" id="Layer_1" xmlns="http://www.w3.org/2000/svg" xmlns:xlink="http://www.w3.org/1999/xlink" x="0px" y="0px"
	 width="32px" height="32px" viewBox="0 0 32 32" enable-background="new 0 0 32 32" xml:space="preserve">
<g>
	<path d="M9.394,3.123l4.217,3.415c-3.647,2.395-6.838,6.95-7.293,10.596c0.112,0,0.909-0.223,1.48-0.223
		c3.192,0,5.586,2.507,5.586,5.805c0,3.416-2.737,6.161-6.157,6.161c-3.758,0-7.066-3.08-7.066-8.662
		C0.161,13.256,4.151,6.761,9.394,3.123z M27.627,3.123l4.213,3.415c-3.646,2.395-6.838,6.95-7.293,10.596
		c0.23,0,1.029-0.223,1.484-0.223c3.191,0,5.586,2.507,5.586,5.805c0,3.416-2.738,6.161-6.15,6.161c-3.77,0-7.072-3.08-7.072-8.662
		C18.395,13.256,22.383,6.761,27.627,3.123z"/>
</g>
</svg>
