<?xml version="1.0" encoding="utf-8"?>
<!-- Generator: Adobe Illustrator 16.0.0, SVG Export Plug-In . SVG Version: 6.00 Build 0)  -->
<!DOCTYPE svg PUBLIC "-//W3C//DTD SVG 1.1//EN" "http://www.w3.org/Graphics/SVG/1.1/DTD/svg11.dtd">
<svg version="1.1" id="Layer_1" xmlns="http://www.w3.org/2000/svg" xmlns:xlink="http://www.w3.org/1999/xlink" x="0px" y="0px"
	 width="313px" height="370px" viewBox="0 0 313 370" enable-background="new 0 0 313 370" xml:space="preserve">
<path fill="#020202" d="M311,89.167c-11.369,5.042-23.588,8.45-36.409,9.981c13.087-7.846,23.138-20.269,27.873-35.073
	c-12.252,7.266-25.819,12.541-40.258,15.384c-11.563-12.32-28.039-20.02-46.274-20.02c-35.011,0-63.395,28.384-63.395,63.394
	c0,4.97,0.56,9.807,1.641,14.447c-52.687-2.643-99.4-27.882-130.666-66.236c-5.458,9.362-8.583,20.252-8.583,31.87
	c0,21.995,11.191,41.398,28.202,52.768c-10.392-0.33-20.167-3.182-28.714-7.93c-0.006,0.266-0.006,0.529-0.006,0.797
	c0,30.715,21.853,56.337,50.853,62.162c-5.319,1.448-10.92,2.224-16.701,2.224c-4.085,0-8.056-0.398-11.928-1.139
	c8.068,25.186,31.48,43.518,59.221,44.027c-21.696,17.004-49.031,27.137-78.733,27.137c-5.117,0-10.163-0.299-15.123-0.887
	c28.055,17.987,61.378,28.486,97.179,28.486c116.605,0,180.372-96.603,180.372-180.376c0-2.748-0.062-5.481-0.185-8.201
	C291.754,113.044,302.5,101.88,311,89.167z"/>
</svg>
